<svg xmlns="http://www.w3.org/2000/svg" xmlns:xlink="http://www.w3.org/1999/xlink" zoomAndPan="magnify" preserveAspectRatio="xMidYMid meet" version="1.0" viewBox="147.5 174.05 80.03 30.16"><defs><g/></defs><g fill="#ef3535" fill-opacity="1"><g transform="translate(146.21484, 203.999987)"><g><path d="M 5.515625 -0.125 C 4.296875 -0.125 3.285156 -0.492188 2.484375 -1.234375 C 1.679688 -1.984375 1.28125 -2.929688 1.28125 -4.078125 L 1.28125 -25.234375 C 1.28125 -26.410156 1.664062 -27.390625 2.4375 -28.171875 C 3.207031 -28.960938 4.222656 -29.359375 5.484375 -29.359375 C 6.816406 -29.359375 7.851562 -28.960938 8.59375 -28.171875 C 9.34375 -27.390625 9.71875 -26.4375 9.71875 -25.3125 L 9.71875 -17.921875 L 17.15625 -17.921875 L 17.15625 -25.234375 C 17.15625 -26.410156 17.539062 -27.390625 18.3125 -28.171875 C 19.09375 -28.960938 20.132812 -29.359375 21.4375 -29.359375 C 22.75 -29.359375 23.773438 -28.960938 24.515625 -28.171875 C 25.265625 -27.390625 25.640625 -26.4375 25.640625 -25.3125 L 25.640625 -4.078125 C 25.640625 -2.929688 25.242188 -1.984375 24.453125 -1.234375 C 23.671875 -0.492188 22.691406 -0.125 21.515625 -0.125 C 20.234375 -0.125 19.1875 -0.492188 18.375 -1.234375 C 17.5625 -1.984375 17.15625 -2.929688 17.15625 -4.078125 L 17.15625 -12.046875 L 9.71875 -12.046875 L 9.71875 -4.078125 C 9.71875 -2.929688 9.320312 -1.984375 8.53125 -1.234375 C 7.75 -0.492188 6.742188 -0.125 5.515625 -0.125 Z M 5.515625 -0.125 "/></g></g></g><g fill="#ef3535" fill-opacity="1"><g transform="translate(173.092169, 203.999987)"><g><path d="M 10.71875 0.203125 C 8.820312 0.222656 7.117188 -0.109375 5.609375 -0.796875 C 4.109375 -1.492188 2.929688 -2.484375 2.078125 -3.765625 C 1.222656 -5.046875 0.796875 -6.550781 0.796875 -8.28125 C 0.796875 -9.613281 0.984375 -10.734375 1.359375 -11.640625 C 1.734375 -12.546875 2.210938 -13.289062 2.796875 -13.875 C 3.390625 -14.46875 4.007812 -14.9375 4.65625 -15.28125 C 5.3125 -15.625 5.90625 -15.890625 6.4375 -16.078125 L 6.4375 -16.125 C 6.007812 -16.5 5.507812 -17.007812 4.9375 -17.65625 C 4.363281 -18.3125 3.863281 -19.070312 3.4375 -19.9375 C 3.007812 -20.800781 2.796875 -21.742188 2.796875 -22.765625 C 2.796875 -24.222656 3.171875 -25.484375 3.921875 -26.546875 C 4.671875 -27.617188 5.703125 -28.453125 7.015625 -29.046875 C 8.335938 -29.648438 9.835938 -29.953125 11.515625 -29.953125 C 13.203125 -29.953125 14.695312 -29.648438 16 -29.046875 C 17.300781 -28.453125 18.328125 -27.617188 19.078125 -26.546875 C 19.828125 -25.484375 20.203125 -24.222656 20.203125 -22.765625 C 20.203125 -21.191406 19.757812 -19.847656 18.875 -18.734375 C 18 -17.628906 16.570312 -16.640625 14.59375 -15.765625 L 14.59375 -15 L 16.875 -13.40625 C 16.875 -13.40625 17.019531 -13.75 17.3125 -14.4375 C 17.613281 -15.132812 18.054688 -15.816406 18.640625 -16.484375 C 19.648438 -17.578125 20.757812 -18.234375 21.96875 -18.453125 C 23.1875 -18.679688 24.222656 -18.515625 25.078125 -17.953125 C 25.742188 -17.523438 26.226562 -16.90625 26.53125 -16.09375 C 26.84375 -15.28125 26.953125 -14.445312 26.859375 -13.59375 C 26.765625 -12.738281 26.425781 -12.019531 25.84375 -11.4375 C 25.4375 -11.039062 24.953125 -10.753906 24.390625 -10.578125 C 23.835938 -10.398438 23.347656 -10.289062 22.921875 -10.25 C 22.492188 -10.21875 22.28125 -10.203125 22.28125 -10.203125 L 22.28125 -9.40625 C 22.28125 -9.40625 22.445312 -9.335938 22.78125 -9.203125 C 23.113281 -9.066406 23.625 -9.015625 24.3125 -9.046875 C 25.488281 -9.097656 26.390625 -8.78125 27.015625 -8.09375 C 27.640625 -7.414062 27.953125 -6.410156 27.953125 -5.078125 C 27.953125 -4.273438 27.785156 -3.46875 27.453125 -2.65625 C 27.117188 -1.84375 26.625 -1.160156 25.96875 -0.609375 C 25.320312 -0.0664062 24.519531 0.203125 23.5625 0.203125 C 22.675781 0.203125 21.894531 -0.0664062 21.21875 -0.609375 C 20.539062 -1.160156 19.773438 -1.851562 18.921875 -2.6875 C 18.441406 -2.28125 17.875 -1.859375 17.21875 -1.421875 C 16.5625 -0.984375 15.71875 -0.609375 14.6875 -0.296875 C 13.664062 0.00390625 12.34375 0.171875 10.71875 0.203125 Z M 8.875 -20.953125 C 8.875 -20.285156 9.140625 -19.671875 9.671875 -19.109375 C 10.210938 -18.554688 10.800781 -18.023438 11.4375 -17.515625 C 12.320312 -17.804688 13.019531 -18.234375 13.53125 -18.796875 C 14.050781 -19.359375 14.3125 -20.050781 14.3125 -20.875 C 14.3125 -21.519531 14.097656 -22.070312 13.671875 -22.53125 C 13.253906 -23 12.617188 -23.234375 11.765625 -23.234375 C 10.773438 -23.234375 10.046875 -23.003906 9.578125 -22.546875 C 9.109375 -22.097656 8.875 -21.566406 8.875 -20.953125 Z M 7.125 -11.078125 C 7.125 -10.328125 7.4375 -9.691406 8.0625 -9.171875 C 8.6875 -8.660156 9.613281 -8.40625 10.84375 -8.40625 C 11.644531 -8.40625 12.253906 -8.492188 12.671875 -8.671875 C 13.097656 -8.859375 13.3125 -8.953125 13.3125 -8.953125 L 8.640625 -13.28125 C 8.296875 -13.175781 7.957031 -12.957031 7.625 -12.625 C 7.289062 -12.289062 7.125 -11.773438 7.125 -11.078125 Z M 7.125 -11.078125 "/></g></g></g><g fill="#ef3535" fill-opacity="1"><g transform="translate(201.889312, 203.999987)"><g><path d="M 5.515625 -0.125 C 4.296875 -0.125 3.285156 -0.492188 2.484375 -1.234375 C 1.679688 -1.984375 1.28125 -2.929688 1.28125 -4.078125 L 1.28125 -25.234375 C 1.28125 -26.410156 1.664062 -27.390625 2.4375 -28.171875 C 3.207031 -28.960938 4.222656 -29.359375 5.484375 -29.359375 C 6.816406 -29.359375 7.851562 -28.960938 8.59375 -28.171875 C 9.34375 -27.390625 9.71875 -26.4375 9.71875 -25.3125 L 9.71875 -17.921875 L 17.15625 -17.921875 L 17.15625 -25.234375 C 17.15625 -26.410156 17.539062 -27.390625 18.3125 -28.171875 C 19.09375 -28.960938 20.132812 -29.359375 21.4375 -29.359375 C 22.75 -29.359375 23.773438 -28.960938 24.515625 -28.171875 C 25.265625 -27.390625 25.640625 -26.4375 25.640625 -25.3125 L 25.640625 -4.078125 C 25.640625 -2.929688 25.242188 -1.984375 24.453125 -1.234375 C 23.671875 -0.492188 22.691406 -0.125 21.515625 -0.125 C 20.234375 -0.125 19.1875 -0.492188 18.375 -1.234375 C 17.5625 -1.984375 17.15625 -2.929688 17.15625 -4.078125 L 17.15625 -12.046875 L 9.71875 -12.046875 L 9.71875 -4.078125 C 9.71875 -2.929688 9.320312 -1.984375 8.53125 -1.234375 C 7.75 -0.492188 6.742188 -0.125 5.515625 -0.125 Z M 5.515625 -0.125 "/></g></g></g></svg>